PathFileType	4	(X/Y/Z)	Kaydara																																																																																																																									
DataRate	CameraRate	NumFrames	NumMarkers	Units	OrigDataRate	OrigDataStartFrame	OrigNumFrames																																																																																																																					
30	30	9	41	mm	30	1	158																																																																																																																					
Frame#	Time	NABA_LFHD			NABA_RFHD			NABA_LBHD			NABA_RBHD			NABA_LFTShould			NABA_RFTShould			NABA_LRRShould			NABA_RRRShould			NABA_T10			NABA_STRN			NABA_TRUN			NABA_LSHO			NABA_LUPA			NABA_LELB			NABA_LFRM			NABA_LWRA			NABA_LWRB			NABA_LFIN			NABA_RSHO			NABA_RUPA			NABA_RELB			NABA_RFRM			NABA_RWRA			NABA_RWRB			NABA_RFIN			NABA_LFWT			NABA_RFWT			NABA_LBWT			NABA_RBWT			NABA_LTHI			NABA_LKNE			NABA_LSHN			NABA_LANK			NABA_LHEE			NABA_LTOE			NABA_RTHI			NABA_RKNE			NABA_RSHN			NABA_RANK			NABA_RHEE			NABA_RTOE		
		X1	Y1	Z1	X2	Y2	Z2	X3	Y3	Z3	X4	Y4	Z4	X5	Y5	Z5	X6	Y6	Z6	X7	Y7	Z7	X8	Y8	Z8	X9	Y9	Z9	X10	Y10	Z10	X11	Y11	Z11	X12	Y12	Z12	X13	Y13	Z13	X14	Y14	Z14	X15	Y15	Z15	X16	Y16	Z16	X17	Y17	Z17	X18	Y18	Z18	X19	Y19	Z19	X20	Y20	Z20	X21	Y21	Z21	X22	Y22	Z22	X23	Y23	Z23	X24	Y24	Z24	X25	Y25	Z25	X26	Y26	Z26	X27	Y27	Z27	X28	Y28	Z28	X29	Y29	Z29	X30	Y30	Z30	X31	Y31	Z31	X32	Y32	Z32	X33	Y33	Z33	X34	Y34	Z34	X35	Y35	Z35	X36	Y36	Z36	X37	Y37	Z37	X38	Y38	Z38	X39	Y39	Z39	X40	Y40	Z40	X41	Y41	Z41
																																																																																																																												
1	0.01	253.62045	1615.07645	-1923.29224	81.90885	1597.19711	-1897.39639	264.26281	1589.24622	-2046.82678	48.76783	1582.90894	-1989.50226	241.50791	1342.50214	-1943.49747	93.36617	1325.13123	-1937.69501	238.6834	1388.35159	-2069.44504	86.69253	1383.93768	-2054.60037	170.99899	1217.80617	-2121.06644	177.3378	1291.10336	-1888.7619	183.41272	1196.4254	-1833.5318	337.16042	1362.32132	-2003.32977	391.09524	1125.57693	-2042.17941	402.6881	1039.59068	-2018.41415	393.26538	967.88834	-2039.48471	349.19044	819.422	-1962.08221	420.24364	820.71915	-1970.77454	404.52354	759.57039	-1928.60275	8.11675	1353.92868	-1982.48764	-36.87694	1143.42911	-2046.62506	-65.19444	1028.12218	-1998.12164	-66.60305	934.19029	-1983.27408	2.58001	819.37248	-1899.72885	-71.60099	806.31088	-1896.41418	-53.44646	772.53181	-1861.27045	303.63613	948.28392	-1925.69016	37.07157	947.8772	-1921.27945	248.31394	999.55116	-2092.91946	82.5511	1031.19728	-2092.55249	300.7555	656.58684	-2080.26413	300.90221	504.07352	-2033.98773	254.29966	309.29617	-2018.84689	278.55442	160.68354	-2096.24557	218.7582	112.53832	-2147.43576	248.957	80.95405	-1973.46207	34.85675	669.88144	-2080.20599	48.62271	501.60622	-1979.34357	55.71163	331.69441	-2012.84348	47.31355	144.183	-2088.87543	91.78031	100.33292	-2157.81647	69.22429	82.35666	-1978.27652
2	0.043	252.98021	1614.98596	-1922.67365	80.76869	1598.32748	-1893.5054	263.6224	1589.3306	-2046.26801	48.1709	1582.90283	-1988.8147	240.89981	1342.42111	-1943.4816	92.40661	1324.87122	-1937.62558	238.0929	1388.47488	-2069.14185	86.12679	1383.82019	-2054.29901	170.5838	1217.88399	-2120.92102	176.65756	1290.81161	-1888.72864	182.67054	1196.04439	-1833.56735	336.56841	1362.32986	-2002.94159	390.31303	1125.87547	-2042.46811	401.83117	1039.94621	-2019.10004	392.69146	967.82211	-2039.23721	348.60199	819.68628	-1961.51474	419.51824	820.83275	-1970.04089	403.77903	759.87968	-1927.70523	7.45888	1353.59497	-1982.39471	-36.93953	1143.4034	-2047.59583	-65.09676	1027.70416	-1999.60724	-66.68556	933.87367	-1985.9996	2.21752	817.78427	-1904.10202	-71.86761	804.87206	-1900.88943	-53.71084	770.41504	-1866.22787	303.31924	948.27545	-1925.82947	36.9549	947.77672	-1921.11893	247.91605	999.54895	-2092.82776	82.09054	1031.16135	-2092.34329	300.49059	656.6658	-2080.32028	300.7369	504.13761	-2034.04617	254.3115	309.42324	-2018.60504	278.50327	160.73448	-2096.27899	218.74981	112.55069	-2147.43118	248.95504	80.95741	-1973.43018	34.59795	669.81087	-2080.05386	48.54135	501.52664	-1979.17587	55.61426	331.62193	-2012.68387	47.26907	144.11232	-2088.78998	91.79647	100.28656	-2157.78595	69.27502	82.36782	-1978.26019
3	0.077	252.27127	1614.7731	-1921.69769	82.69109	1595.94635	-1893.76968	263.00016	1589.46869	-2045.62454	47.59111	1582.81738	-1988.2486	240.13557	1342.15363	-1942.96112	92.04654	1324.46823	-1937.44797	237.61852	1388.56064	-2068.73566	85.64097	1383.74191	-2053.89816	170.26339	1217.9763	-2120.64087	176.01095	1290.48737	-1888.74817	182.17463	1195.72754	-1833.52066	335.89218	1362.43729	-2002.71683	389.92851	1125.39085	-2041.13647	401.3335	1038.85139	-2016.40762	392.01542	967.62596	-2038.43567	347.7639	820.12215	-1959.78043	418.60611	820.90469	-1968.21304	402.89265	760.39024	-1925.61951	6.90895	1353.33618	-1982.19971	-36.9495	1143.48076	-2048.55484	-65.05695	1027.46933	-2001.40564	-66.80037	933.62724	-1988.8942	1.6007	816.28792	-1908.44009	-72.51719	803.5318	-1905.47073	-54.39518	768.39615	-1871.40518	303.08798	948.28979	-1925.84122	36.71517	947.71721	-1921.08841	247.5514	999.59076	-2092.76138	81.72214	1031.13876	-2092.15683	300.32377	656.70555	-2080.23285	300.5723	504.15161	-2033.92929	253.53411	308.48927	-2020.36209	278.63424	160.933	-2095.72922	218.76505	112.56024	-2147.4118	248.97728	80.96778	-1973.41522	34.33415	669.77203	-2079.84695	48.45909	501.46931	-1979.04724	55.87946	331.57051	-2012.93854	47.30207	144.06312	-2088.7709	91.79011	100.27043	-2157.76825	69.32918	82.35657	-1978.27728
4	0.11	251.60097	1614.80698	-1921.03012	81.66632	1596.03043	-1893.34259	262.48672	1589.6286	-2044.98489	47.00956	1582.65579	-1987.67044	239.69477	1342.07779	-1942.70126	91.67685	1324.1835	-1937.21664	237.13923	1388.61923	-2068.32642	85.2435	1383.71704	-2053.45734	169.90788	1218.06747	-2120.36911	175.6673	1290.1857	-1888.35419	181.78156	1195.51796	-1833.42285	335.51155	1362.45193	-2002.09183	389.57775	1125.43533	-2040.61981	400.77682	1038.72742	-2015.49759	391.47072	967.34238	-2037.20886	346.88	820.53375	-1957.31491	417.59579	821.1245	-1965.8165	401.82747	761.08597	-1922.64252	6.34133	1353.09402	-1981.89362	-36.97553	1143.5437	-2049.45877	-64.95603	1027.23427	-2003.0101	-66.96613	933.47939	-1991.78299	0.58221	814.79584	-1912.78244	-73.41009	802.31628	-1910.16907	-55.44473	766.53114	-1876.52985	302.84954	948.34641	-1925.58411	36.3714	947.66434	-1920.98053	247.10075	999.58626	-2092.69531	81.38905	1031.1409	-2092.01126	300.16865	656.71478	-2080.14969	300.45864	504.19933	-2033.83484	253.47393	308.52667	-2020.25314	278.64151	160.90395	-2095.7663	218.82864	112.61603	-2147.4324	248.95298	80.96766	-1973.40195	34.14742	669.71008	-2079.75739	48.27796	501.42021	-1979.00208	56.19612	331.61316	-2013.36761	47.29314	144.04292	-2088.74924	91.84217	100.25987	-2157.78564	69.31129	82.38918	-1978.30048
5	0.143	251.01416	1614.88434	-1920.36652	81.03735	1595.9259	-1892.76779	261.89598	1589.75128	-2044.25842	46.42308	1582.52243	-1987.12753	239.30643	1341.98288	-1942.34756	91.21511	1324.05701	-1936.86127	236.77427	1388.78937	-2067.86774	84.78349	1383.75	-2052.98157	169.6344	1218.19878	-2120.10696	175.30352	1289.98856	-1888.28995	181.37581	1195.17479	-1833.2753	335.15903	1362.47864	-2001.57257	389.2482	1125.33173	-2039.66187	400.35374	1038.64487	-2014.44611	390.91328	967.0388	-2035.60684	346.08814	821.21834	-1954.63028	416.50517	821.37817	-1962.70874	400.45448	761.98578	-1918.91739	5.9255	1352.85248	-1981.52893	-36.94571	1143.7587	-2050.24307	-64.91171	1027.11243	-2004.48196	-67.24277	933.41904	-1994.42108	-0.26858	813.58475	-1916.55106	-74.41406	801.29929	-1914.44138	-56.67906	764.99153	-1881.29288	302.6387	948.34	-1925.5751	36.1039	947.58728	-1920.8725	246.75064	999.57558	-2092.66144	81.053	1031.09886	-2091.87668	300.01431	656.71951	-2080.13016	300.30437	504.19083	-2033.79883	253.40609	308.51553	-2020.26886	278.63619	160.92258	-2095.77103	218.86019	112.6218	-2147.43256	248.95338	80.95937	-1973.4198	34.03498	669.627	-2079.65485	48.10112	501.36055	-1978.92975	55.78286	331.5271	-2012.95837	47.26796	144.00585	-2088.7439	91.81584	100.26957	-2157.771	69.33135	82.34988	-1978.28278
6	0.177	250.34683	1614.85519	-1919.53308	80.36814	1595.77011	-1892.07916	261.37608	1589.89029	-2043.55423	45.95974	1582.33688	-1986.41861	238.85139	1341.93253	-1941.92169	90.62823	1323.91083	-1936.39801	236.45504	1388.91541	-2067.35138	84.42656	1383.78525	-2052.49573	169.37063	1218.33061	-2119.8027	174.81922	1289.62616	-1887.52121	181.0491	1194.90761	-1833.13828	334.79229	1362.67868	-2001.24802	388.95668	1125.32784	-2038.64288	400.01671	1038.71658	-2013.30872	390.40375	966.70853	-2033.7915	345.16563	822.04422	-1951.22589	415.2354	821.74927	-1959.22791	398.99757	763.06686	-1914.80423	5.53642	1352.71194	-1981.11542	-36.90954	1143.93631	-2050.76202	-65.01096	1027.12448	-2005.74646	-67.6129	933.45596	-1996.63116	-1.50879	812.4424	-1920.06744	-75.56771	800.4969	-1918.20465	-58.05999	763.69415	-1885.48477	302.44398	948.30391	-1925.55542	35.8949	947.55905	-1920.79056	246.46469	999.64828	-2092.59064	80.73888	1031.10207	-2091.73553	299.80244	656.74507	-2080.12924	300.19789	504.2363	-2033.82401	253.33612	308.52066	-2020.29373	278.62305	161.00563	-2095.70358	218.8588	112.61676	-2147.44003	248.96584	80.9657	-1973.42392	33.89194	669.599	-2079.58649	47.97756	501.27815	-1978.85773	55.58294	331.45416	-2012.74597	47.29683	143.9397	-2088.74771	91.84145	100.24812	-2157.75681	69.32368	82.35289	-1978.293
7	0.21	249.86069	1614.89807	-1918.92426	79.99187	1595.57098	-1891.32294	260.87109	1589.99329	-2042.8511	45.48013	1582.30423	-1985.74173	238.46701	1341.94336	-1941.48529	90.15001	1323.73016	-1936.12427	236.10943	1389.07684	-2066.84967	84.1054	1383.7915	-2052.04681	169.17442	1218.49899	-2119.44305	174.43277	1289.56619	-1887.66022	180.60848	1194.74609	-1832.91473	334.38438	1362.65961	-2000.40634	388.78399	1125.42435	-2037.61688	399.65885	1038.73863	-2012.02164	389.87911	966.45309	-2031.84097	344.04892	823.05496	-1947.49786	413.91613	822.23991	-1955.63705	397.4337	764.24606	-1910.4422	5.12503	1352.61383	-1980.8136	-37.08243	1144.06204	-2051.15997	-65.21989	1027.08229	-2006.7749	-68.08341	933.52295	-1998.41843	-2.63582	811.59691	-1922.60818	-76.68475	799.86588	-1921.14182	-59.37914	762.64618	-1888.75534	302.27871	948.32848	-1925.36896	35.61672	947.50793	-1920.62897	246.20449	999.72305	-2092.44415	80.46145	1031.15097	-2091.57074	299.61817	656.86005	-2080.17487	300.05764	504.26949	-2033.90182	253.25756	308.53962	-2020.36499	278.62787	161.01952	-2095.71335	218.87609	112.6406	-2147.45071	248.98716	80.95867	-1973.4314	33.7856	669.55101	-2079.47723	47.78008	501.21666	-1978.81561	55.35986	331.44455	-2012.51678	47.27362	143.94823	-2088.71704	91.84454	100.25407	-2157.7652	69.33781	82.34898	-1978.28827
8	0.243	249.47182	1614.90036	-1918.24203	79.56428	1595.4599	-1890.51544	260.39864	1590.12161	-2042.1257	44.97079	1582.35748	-1984.92599	238.02345	1341.95175	-1940.97229	89.77912	1323.7204	-1935.87006	235.78798	1389.27139	-2066.3652	83.75584	1383.75305	-2051.64215	169.0461	1218.65257	-2119.12415	173.95308	1289.49112	-1887.34497	180.18154	1194.64294	-1832.64725	334.04007	1362.8627	-1999.81522	388.60519	1125.49812	-2036.43616	399.33655	1038.82751	-2010.60272	389.40945	966.23611	-2029.77829	343.02734	823.94455	-1944.34891	412.57683	822.75284	-1951.91223	395.73883	765.38971	-1906.0553	4.71752	1352.43378	-1980.55405	-37.28704	1144.14497	-2051.48865	-65.55037	1027.08687	-2007.46506	-68.60394	933.53745	-1999.6637	-3.69969	810.96092	-1924.37424	-77.8224	799.41803	-1923.27911	-60.70827	761.83601	-1891.12595	302.11426	948.37875	-1925.29083	35.35294	947.46185	-1920.47913	245.90675	999.79301	-2092.26166	80.26094	1031.16959	-2091.39191	299.43274	656.91116	-2080.07797	299.93252	504.30992	-2033.8472	253.23166	308.61639	-2020.34851	278.61244	161.06785	-2095.75012	218.86246	112.69767	-2147.42889	249.04636	80.96713	-1973.40591	33.44872	669.7065	-2079.55338	47.7072	501.18286	-1978.68622	55.4172	331.45462	-2012.58072	47.24975	143.95399	-2088.66714	91.86461	100.31611	-2157.75528	69.3136	82.34677	-1978.27515
9	0.277	248.98781	1614.77966	-1917.33505	79.17323	1595.38132	-1889.73419	259.95388	1590.24323	-2041.37146	44.46857	1582.36893	-1984.18045	237.52831	1341.90155	-1940.51224	89.31016	1323.56689	-1935.59692	235.42673	1389.38614	-2065.8139	83.38218	1383.73062	-2051.30249	168.88597	1218.74527	-2118.79822	173.50201	1289.40155	-1887.0636	179.67775	1194.52324	-1832.34772	333.57346	1363.19214	-1999.35913	388.30921	1125.36194	-2034.96292	398.96751	1038.86871	-2009.13315	388.92635	966.02547	-2027.74292	342.39037	824.7364	-1941.67603	411.26263	823.17451	-1948.29666	394.02836	766.46645	-1901.85608	4.36546	1352.27371	-1980.33966	-37.4626	1144.16573	-2051.59393	-65.89218	1026.99417	-2007.75269	-69.17247	933.51593	-2000.28488	-4.71504	810.59639	-1925.26047	-78.83487	799.1507	-1924.45679	-61.87067	761.40831	-1892.37946	301.81772	948.3326	-1925.39658	35.08859	947.47589	-1920.34256	245.68457	999.83582	-2092.08801	80.03154	1031.14182	-2091.22299	299.25974	656.9809	-2079.95132	299.81291	504.38942	-2033.81287	253.16704	308.69493	-2020.28732	278.60796	161.11389	-2095.71564	218.85252	112.80087	-2147.41028	249.0546	80.95266	-1973.39874	33.19288	669.87335	-2079.70978	47.63523	501.16085	-1978.88535	55.88476	331.50505	-2013.29239	47.25708	143.92411	-2088.65082	91.91888	100.36258	-2157.73407	69.32734	82.33542	-1978.24173
